{
  "accessors": [
    {
      "bufferView": 2,
      "componentType": 5126,
      "count": 3240,
      "max": [
        0.32611700892448425,
        2.523346185684204,
        0.19295373558998108
      ],
      "min": [
        -0.32611700892448425,
        0.02761899121105671,
        -0.17846831679344177
      ],
      "type": "VEC3"
    },
    {
      "bufferView": 2,
      "byteOffset": 38880,
      "componentType": 5126,
      "count": 3240,
      "max": [
        0.9999957084655762,
        0.9988758563995361,
        1.0
      ],
      "min": [
        -0.9999957084655762,
        -1.0,
        -1.0
      ],
      "type": "VEC3"
    },
    {
      "bufferView": 1,
      "componentType": 5126,
      "count": 3240,
      "max": [
        0.88089919090271,
        0.9057823419570923
      ],
      "min": [
        0.11444291472434998,
        0.03403346985578537
      ],
      "type": "VEC2"
    },
    {
      "bufferView": 0,
      "componentType": 5125,
      "count": 4692,
      "type": "SCALAR"
    },
    {
      "bufferView": 2,
      "byteOffset": 77760,
      "componentType": 5126,
      "count": 328,
      "max": [
        1.0,
        5.726210594177246,
        1.0
      ],
      "min": [
        -1.0,
        0.20792555809020996,
        -1.0
      ],
      "type": "VEC3"
    },
    {
      "bufferView": 2,
      "byteOffset": 81696,
      "componentType": 5126,
      "count": 328,
      "max": [
        0.9913438558578491,
        1.0,
        0.9946648478507996
      ],
      "min": [
        -0.999476969242096,
        -1.0,
        -0.9997697472572327
      ],
      "type": "VEC3"
    },
    {
      "bufferView": 1,
      "byteOffset": 25920,
      "componentType": 5126,
      "count": 328,
      "max": [
        0.7102696299552917,
        0.807184100151062
      ],
      "min": [
        0.18868571519851685,
        0.25621533393859863
      ],
      "type": "VEC2"
    },
    {
      "bufferView": 0,
      "byteOffset": 18768,
      "componentType": 5125,
      "count": 552,
      "type": "SCALAR"
    },
    {
      "bufferView": 2,
      "byteOffset": 85632,
      "componentType": 5126,
      "count": 402,
      "max": [
        0.8852818012237549,
        2.9797279834747314,
        1.0945979356765747
      ],
      "min": [
        -0.860855758190155,
        -10.00158977508545,
        -1.1440714597702026
      ],
      "type": "VEC3"
    },
    {
      "bufferView": 2,
      "byteOffset": 90456,
      "componentType": 5126,
      "count": 402,
      "max": [
        0.9989476203918457,
        0.6287955045700073,
        0.9998285174369812
      ],
      "min": [
        -0.9989476203918457,
        -0.24060380458831787,
        -0.974985659122467
      ],
      "type": "VEC3"
    },
    {
      "bufferView": 1,
      "byteOffset": 28544,
      "componentType": 5126,
      "count": 402,
      "max": [
        0.08587315678596497,
        0.29323360323905945
      ],
      "min": [
        0.026939349249005318,
        0.25411102175712585
      ],
      "type": "VEC2"
    },
    {
      "bufferView": 0,
      "byteOffset": 20976,
      "componentType": 5125,
      "count": 528,
      "type": "SCALAR"
    },
    {
      "bufferView": 2,
      "byteOffset": 95280,
      "componentType": 5126,
      "count": 288,
      "max": [
        0.17861934006214142,
        2.269937753677368,
        -0.037862714380025864
      ],
      "min": [
        -0.17861934006214142,
        2.2092912197113037,
        -0.09332989156246185
      ],
      "type": "VEC3"
    },
    {
      "bufferView": 2,
      "byteOffset": 98736,
      "componentType": 5126,
      "count": 288,
      "max": [
        0.9674850702285767,
        0.8381454944610596,
        0.967678964138031
      ],
      "min": [
        -0.9674850702285767,
        -0.8381454944610596,
        -0.9676791429519653
      ],
      "type": "VEC3"
    },
    {
      "bufferView": 1,
      "byteOffset": 31760,
      "componentType": 5126,
      "count": 288,
      "max": [
        0.7402803897857666,
        0.6328219175338745
      ],
      "min": [
        0.49297744035720825,
        0.46589571237564087
      ],
      "type": "VEC2"
    },
    {
      "bufferView": 0,
      "byteOffset": 23088,
      "componentType": 5125,
      "count": 432,
      "type": "SCALAR"
    },
    {
      "bufferView": 2,
      "byteOffset": 102192,
      "componentType": 5126,
      "count": 72,
      "max": [
        0.8159825205802917,
        1.9021759033203125,
        0.25002574920654297
      ],
      "min": [
        -0.8159825205802917,
        -3.0524721145629883,
        -3.222081184387207
      ],
      "type": "VEC3"
    },
    {
      "bufferView": 2,
      "byteOffset": 103056,
      "componentType": 5126,
      "count": 72,
      "max": [
        1.0,
        0.3964109718799591,
        0.44286486506462097
      ],
      "min": [
        -1.0,
        -0.39641085267066956,
        -0.5178754329681396
      ],
      "type": "VEC3"
    },
    {
      "bufferView": 1,
      "byteOffset": 34064,
      "componentType": 5126,
      "count": 72,
      "max": [
        0.9091596007347107,
        0.47118160128593445
      ],
      "min": [
        0.9091596007347107,
        0.47118160128593445
      ],
      "type": "VEC2"
    },
    {
      "bufferView": 0,
      "byteOffset": 24816,
      "componentType": 5125,
      "count": 108,
      "type": "SCALAR"
    },
    {
      "bufferView": 2,
      "byteOffset": 103920,
      "componentType": 5126,
      "count": 260,
      "max": [
        2.2138609886169434,
        1.82541823387146,
        -14.878926277160645
      ],
      "min": [
        -2.2138609886169434,
        0.8915137052536011,
        -16.262537002563477
      ],
      "type": "VEC3"
    },
    {
      "bufferView": 2,
      "byteOffset": 107040,
      "componentType": 5126,
      "count": 260,
      "max": [
        0.8404232263565063,
        0.9985904693603516,
        0.8626258373260498
      ],
      "min": [
        -0.8404232263565063,
        0.47377949953079224,
        -0.5769426226615906
      ],
      "type": "VEC3"
    },
    {
      "bufferView": 1,
      "byteOffset": 34640,
      "componentType": 5126,
      "count": 260,
      "max": [
        0.8073496222496033,
        0.9279619455337524
      ],
      "min": [
        0.09036219120025635,
        0.3038293719291687
      ],
      "type": "VEC2"
    },
    {
      "bufferView": 0,
      "byteOffset": 25248,
      "componentType": 5125,
      "count": 360,
      "type": "SCALAR"
    },
    {
      "bufferView": 2,
      "byteOffset": 110160,
      "componentType": 5126,
      "count": 112,
      "max": [
        1.4993171691894531,
        25.439725875854492,
        1.4859044551849365
      ],
      "min": [
        -1.4993171691894531,
        25.06716537475586,
        0.8581294417381287
      ],
      "type": "VEC3"
    },
    {
      "bufferView": 2,
      "byteOffset": 111504,
      "componentType": 5126,
      "count": 112,
      "max": [
        0.9763363599777222,
        0.9997790455818176,
        0.9766349196434021
      ],
      "min": [
        -0.9763363599777222,
        -0.9997790455818176,
        -0.9962784051895142
      ],
      "type": "VEC3"
    },
    {
      "bufferView": 1,
      "byteOffset": 36720,
      "componentType": 5126,
      "count": 112,
      "max": [
        0.963733434677124,
        0.4749600887298584
      ],
      "min": [
        0.963733434677124,
        0.4749600887298584
      ],
      "type": "VEC2"
    },
    {
      "bufferView": 0,
      "byteOffset": 26688,
      "componentType": 5125,
      "count": 168,
      "type": "SCALAR"
    }
  ],
  "asset": {
    "extras": {
      "author": "micaelsampaio (https://sketchfab.com/micaelsampaio)",
      "license": "CC-BY-4.0 (http://creativecommons.org/licenses/by/4.0/)",
      "source": "https://sketchfab.com/3d-models/low-poly-sunny-girl-54d5bb15b9274cc2bdce1f401f101557",
      "title": "Low poly sunny girl"
    },
    "generator": "Sketchfab-12.82.3",
    "version": "2.0"
  },
  "bufferViews": [
    {
      "buffer": 0,
      "byteLength": 27360,
      "name": "floatBufferViews",
      "target": 34963
    },
    {
      "buffer": 0,
      "byteLength": 37616,
      "byteOffset": 27360,
      "byteStride": 8,
      "name": "floatBufferViews",
      "target": 34962
    },
    {
      "buffer": 0,
      "byteLength": 112848,
      "byteOffset": 64976,
      "byteStride": 12,
      "name": "floatBufferViews",
      "target": 34962
    }
  ],
  "buffers": [
    {
      "byteLength": 177824,
      "uri": "scene.bin"
    }
  ],
  "extensionsUsed": [
    "KHR_materials_unlit"
  ],
  "images": [
    {
      "uri": "textures/Material_baseColor.png"
    }
  ],
  "materials": [
    {
      "doubleSided": true,
      "extensions": {
        "KHR_materials_unlit": {}
      },
      "name": "Material",
      "pbrMetallicRoughness": {
        "baseColorTexture": {
          "index": 0
        },
        "metallicFactor": 0.0
      }
    }
  ],
  "meshes": [
    {
      "name": "Object_0",
      "primitives": [
        {
          "attributes": {
            "NORMAL": 1,
            "POSITION": 0,
            "TEXCOORD_0": 2
          },
          "indices": 3,
          "material": 0,
          "mode": 4
        }
      ]
    },
    {
      "name": "Object_1",
      "primitives": [
        {
          "attributes": {
            "NORMAL": 5,
            "POSITION": 4,
            "TEXCOORD_0": 6
          },
          "indices": 7,
          "material": 0,
          "mode": 4
        }
      ]
    },
    {
      "name": "Object_2",
      "primitives": [
        {
          "attributes": {
            "NORMAL": 9,
            "POSITION": 8,
            "TEXCOORD_0": 10
          },
          "indices": 11,
          "material": 0,
          "mode": 4
        }
      ]
    },
    {
      "name": "Object_3",
      "primitives": [
        {
          "attributes": {
            "NORMAL": 13,
            "POSITION": 12,
            "TEXCOORD_0": 14
          },
          "indices": 15,
          "material": 0,
          "mode": 4
        }
      ]
    },
    {
      "name": "Object_4",
      "primitives": [
        {
          "attributes": {
            "NORMAL": 17,
            "POSITION": 16,
            "TEXCOORD_0": 18
          },
          "indices": 19,
          "material": 0,
          "mode": 4
        }
      ]
    },
    {
      "name": "Object_5",
      "primitives": [
        {
          "attributes": {
            "NORMAL": 21,
            "POSITION": 20,
            "TEXCOORD_0": 22
          },
          "indices": 23,
          "material": 0,
          "mode": 4
        }
      ]
    },
    {
      "name": "Object_6",
      "primitives": [
        {
          "attributes": {
            "NORMAL": 25,
            "POSITION": 24,
            "TEXCOORD_0": 26
          },
          "indices": 27,
          "material": 0,
          "mode": 4
        }
      ]
    }
  ],
  "nodes": [
    {
      "children": [
        1
      ],
      "matrix": [
        1.0,
        0.0,
        0.0,
        0.0,
        0.0,
        2.220446049250313e-16,
        -1.0,
        0.0,
        0.0,
        1.0,
        2.220446049250313e-16,
        0.0,
        0.0,
        0.0,
        0.0,
        1.0
      ],
      "name": "Sketchfab_model"
    },
    {
      "children": [
        2
      ],
      "name": "root"
    },
    {
      "children": [
        3,
        5,
        7,
        9,
        11,
        13,
        15
      ],
      "matrix": [
        1.0,
        0.0,
        0.0,
        0.0,
        0.0,
        2.220446049250313e-16,
        1.0,
        0.0,
        0.0,
        -1.0,
        2.220446049250313e-16,
        0.0,
        0.0,
        0.0,
        0.0,
        1.0
      ],
      "name": "GLTF_SceneRootNode"
    },
    {
      "children": [
        4
      ],
      "name": "body_0"
    },
    {
      "mesh": 0,
      "name": "Object_4"
    },
    {
      "children": [
        6
      ],
      "matrix": [
        0.44954490661621094,
        0.0,
        -0.0,
        0.0,
        -0.0,
        0.0379941038506815,
        -0.023960774208579474,
        0.0,
        0.0,
        0.23979978652713918,
        0.3802455594035469,
        0.0,
        0.0,
        2.417525053024292,
        -0.022001512348651886,
        1.0
      ],
      "name": "hat_1"
    },
    {
      "mesh": 1,
      "name": "Object_6"
    },
    {
      "children": [
        8
      ],
      "matrix": [
        0.22117790579795837,
        0.0,
        0.0,
        0.0,
        0.0,
        0.0463671050965786,
        0.0,
        0.0,
        0.0,
        0.0,
        0.1920766979455948,
        0.0,
        0.0,
        2.4776859283447266,
        -0.009924603626132011,
        1.0
      ],
      "name": "hair_2"
    },
    {
      "mesh": 2,
      "name": "Object_8"
    },
    {
      "children": [
        10
      ],
      "name": "Torus_3"
    },
    {
      "mesh": 3,
      "name": "Object_10"
    },
    {
      "children": [
        12
      ],
      "matrix": [
        0.05141850933432579,
        0.0,
        0.0,
        0.0,
        0.0,
        0.0032665070611983538,
        0.0,
        0.0,
        0.0,
        0.0,
        0.006328323390334845,
        0.0,
        0.0,
        2.220799684524536,
        0.1458514779806137,
        1.0
      ],
      "name": "mouth_4"
    },
    {
      "mesh": 4,
      "name": "Object_12"
    },
    {
      "children": [
        14
      ],
      "matrix": [
        0.06761838495731354,
        0.0,
        0.0,
        0.0,
        0.0,
        -1.7099410536310625e-08,
        0.06761838495731137,
        0.0,
        0.0,
        -0.06761838495731137,
        -1.7099410536310625e-08,
        0.0,
        0.0,
        1.2840285301208496,
        0.0004152200126554817,
        1.0
      ],
      "name": "eyes_5"
    },
    {
      "mesh": 5,
      "name": "Object_14"
    },
    {
      "children": [
        16
      ],
      "matrix": [
        0.09572577476501465,
        0.0,
        0.0,
        0.0,
        0.0,
        0.09572577476501465,
        0.0,
        0.0,
        0.0,
        0.0,
        0.09572577476501465,
        0.0,
        0.0,
        0.014057159423828125,
        0.002555839717388153,
        1.0
      ],
      "name": "eyesbrows_6"
    },
    {
      "mesh": 6,
      "name": "Object_16"
    }
  ],
  "samplers": [
    {
      "magFilter": 9729,
      "minFilter": 9987,
      "wrapS": 10497,
      "wrapT": 10497
    }
  ],
  "scene": 0,
  "scenes": [
    {
      "name": "Sketchfab_Scene",
      "nodes": [
        0
      ]
    }
  ],
  "textures": [
    {
      "sampler": 0,
      "source": 0
    }
  ]
}
